<?xml version="1.0" encoding="iso-8859-1"?>
<!-- Generator: Adobe Illustrator 19.1.0, SVG Export Plug-In . SVG Version: 6.00 Build 0)  -->
<svg version="1.1" id="Capa_1" xmlns="http://www.w3.org/2000/svg" xmlns:xlink="http://www.w3.org/1999/xlink" x="0px" y="0px"
	 viewBox="0 0 538.261 538.261" style="enable-background:new 0 0 538.261 538.261;" xml:space="preserve">
<g>
	<g>
		<path fill="#50c814" d="M269.13,0C120.87,0,0.33,120.688,0.33,269.13s120.54,269.13,268.8,269.13s268.8-120.688,268.8-269.13S417.39,0,269.13,0
			 M145.65,262.402l12.18-12.195c1.68-1.682,3.78-2.523,5.88-2.523s4.2,0.841,5.88,2.523l73.92,74.011c1.68,1.682,4.2,1.682,5.88,0
			L369.51,203.95c2.94-2.944,8.4-2.944,11.76,0l12.18,12.195c1.68,1.682,2.52,3.785,2.52,5.887c0,2.103-0.84,4.205-2.52,5.887
			L251.91,368.793c-2.94,2.944-8.4,2.944-11.76,0l-94.5-94.616c-1.68-1.682-2.52-3.785-2.52-5.887
			C143.13,266.187,143.97,264.084,145.65,262.402"/>
	</g>
</g>
</svg>
